inDegrees=no
DataType=double
version=3
OpenSimVersion=4.4-2022-10-11-798caa840
endheader
time	elv_angle	shoulder_elv	shoulder_rot	elbow_flexion	pro_sup	deviation	flexion
2.4020851434	0.9031533599	1.2062937021	0.4363323152	1.3672780991	0.0000000000	0.0000000000	0.0000000000
2.4062554301	0.9031533599	1.2062937021	0.4363323152	1.3672780991	0.0000000000	0.0000000000	0.0000000000
2.4104257168	0.9031533599	1.2062937021	0.4363323152	1.3672780991	0.0000000000	0.0000000000	0.0000000000
2.4145960035	0.9031533599	1.2062937021	0.4363323152	1.3672780991	0.0000000000	0.0000000000	0.0000000000
2.4187662902	0.9031533599	1.2062937021	0.4363323152	1.3672780991	0.0000000000	0.0000000000	0.0000000000
2.4229365769	0.9031533599	1.2062937021	0.4363323152	1.3672780991	0.0000000000	0.0000000000	0.0000000000
2.4271068636	0.9031533599	1.2062937021	0.4363323152	1.3672780991	0.0000000000	0.0000000000	0.0000000000
2.4312771503	0.9031533599	1.2062937021	0.4363323152	1.3672780991	0.0000000000	0.0000000000	0.0000000000
2.4354474370	0.9031533599	1.2062937021	0.4363323152	1.3672780991	0.0000000000	0.0000000000	0.0000000000
2.4396177237	0.9031533599	1.2062937021	0.4363323152	1.3672780991	0.0000000000	0.0000000000	0.0000000000
2.4437880104	0.9031533599	1.2062937021	0.4363323152	1.3672780991	0.0000000000	0.0000000000	0.0000000000
2.4479582971	0.9031533599	1.2062937021	0.4363323152	1.3672780991	0.0000000000	0.0000000000	0.0000000000
2.4521285838	0.9031533599	1.2062937021	0.4363323152	1.3672780991	0.0000000000	0.0000000000	0.0000000000
2.4562988705	0.9031533599	1.2062937021	0.4363323152	1.3672780991	0.0000000000	0.0000000000	0.0000000000
2.4604691573	0.9031533599	1.2062937021	0.4363323152	1.3672780991	0.0000000000	0.0000000000	0.0000000000
2.4646394440	0.9031533599	1.2062937021	0.4363323152	1.3672780991	0.0000000000	0.0000000000	0.0000000000
2.4688097307	0.9031533599	1.2062937021	0.4363323152	1.3672780991	0.0000000000	0.0000000000	0.0000000000
2.4729800174	0.9031533599	1.2062937021	0.4363323152	1.3672780991	0.0000000000	0.0000000000	0.0000000000
2.4771503041	0.9031533599	1.2062937021	0.4363323152	1.3672780991	0.0000000000	0.0000000000	0.0000000000
2.4813205908	0.9031533599	1.2062937021	0.4363323152	1.3672780991	0.0000000000	0.0000000000	0.0000000000
2.4854908775	0.9031533599	1.2062937021	0.4363323152	1.3672780991	0.0000000000	0.0000000000	0.0000000000
2.4896611642	0.9031533599	1.2062937021	0.4363323152	1.3672780991	0.0000000000	0.0000000000	0.0000000000
2.4938314509	0.9031533599	1.2062937021	0.4363323152	1.3672780991	0.0000000000	0.0000000000	0.0000000000
2.4980017376	0.9031533599	1.2062937021	0.4363323152	1.3672780991	0.0000000000	0.0000000000	0.0000000000
2.5021720243	0.9031533599	1.2062937021	0.4363323152	1.3672780991	0.0000000000	0.0000000000	0.0000000000
2.5063423110	0.9031533599	1.2062937021	0.4363323152	1.3672780991	0.0000000000	0.0000000000	0.0000000000
2.5105125977	0.9031533599	1.2062937021	0.4363323152	1.3672780991	0.0000000000	0.0000000000	0.0000000000
2.5146828844	0.9031533599	1.2062937021	0.4363323152	1.3672780991	0.0000000000	0.0000000000	0.0000000000
2.5188531712	0.9031533599	1.2062937021	0.4363323152	1.3672780991	0.0000000000	0.0000000000	0.0000000000
2.5230234579	0.9031533599	1.2062937021	0.4363323152	1.3672780991	0.0000000000	0.0000000000	0.0000000000
2.5271937446	0.9031533599	1.2062937021	0.4363323152	1.3672780991	0.0000000000	0.0000000000	0.0000000000
2.5313640313	0.9031533599	1.2062937021	0.4363323152	1.3672780991	0.0000000000	0.0000000000	0.0000000000
2.5355343180	0.9031533599	1.2062937021	0.4363323152	1.3672780991	0.0000000000	0.0000000000	0.0000000000
2.5397046047	0.9031533599	1.2062937021	0.4363323152	1.3672780991	0.0000000000	0.0000000000	0.0000000000
2.5438748914	0.9031533599	1.2062937021	0.4363323152	1.3672780991	0.0000000000	0.0000000000	0.0000000000
2.5480451781	0.9031533599	1.2062937021	0.4363323152	1.3672780991	0.0000000000	0.0000000000	0.0000000000
2.5522154648	0.9031533599	1.2062937021	0.4363323152	1.3672780991	0.0000000000	0.0000000000	0.0000000000
2.5563857515	0.9031533599	1.2062937021	0.4363323152	1.3672780991	0.0000000000	0.0000000000	0.0000000000
2.5605560382	0.9031533599	1.2062937021	0.4363323152	1.3672780991	0.0000000000	0.0000000000	0.0000000000
2.5647263249	0.9031533599	1.2062937021	0.4363323152	1.3672780991	0.0000000000	0.0000000000	0.0000000000
2.5688966116	0.9031533599	1.2062937021	0.4363323152	1.3672780991	0.0000000000	0.0000000000	0.0000000000
2.5730668983	0.9031533599	1.2062937021	0.4363323152	1.3672780991	0.0000000000	0.0000000000	0.0000000000
2.5772371851	0.9031533599	1.2062937021	0.4363323152	1.3672780991	0.0000000000	0.0000000000	0.0000000000
2.5814074718	0.9031533599	1.2062937021	0.4363323152	1.3672780991	0.0000000000	0.0000000000	0.0000000000
2.5855777585	0.9031533599	1.2062937021	0.4363323152	1.3672780991	0.0000000000	0.0000000000	0.0000000000
2.5897480452	0.9031533599	1.2062937021	0.4363323152	1.3672780991	0.0000000000	0.0000000000	0.0000000000
2.5939183319	0.9031533599	1.2062937021	0.4363323152	1.3672780991	0.0000000000	0.0000000000	0.0000000000
2.5980886186	0.9031533599	1.2062937021	0.4363323152	1.3672780991	0.0000000000	0.0000000000	0.0000000000
2.6022589053	0.9031533599	1.2062937021	0.4363323152	1.3672780991	0.0000000000	0.0000000000	0.0000000000
2.6064291920	0.9031533599	1.2062937021	0.4363323152	1.3672780991	0.0000000000	0.0000000000	0.0000000000
2.6105994787	0.9031533599	1.2062937021	0.4363323152	1.3672780991	0.0000000000	0.0000000000	0.0000000000
2.6147697654	0.9031533599	1.2062937021	0.4363323152	1.3672780991	0.0000000000	0.0000000000	0.0000000000
2.6189400521	0.9031533599	1.2062937021	0.4363323152	1.3672780991	0.0000000000	0.0000000000	0.0000000000
2.6231103388	0.9031533599	1.2062937021	0.4363323152	1.3672780991	0.0000000000	0.0000000000	0.0000000000
2.6272806255	0.9031533599	1.2062937021	0.4363323152	1.3672780991	0.0000000000	0.0000000000	0.0000000000
2.6314509123	0.9031533599	1.2062937021	0.4363323152	1.3672780991	0.0000000000	0.0000000000	0.0000000000
2.6356211990	0.9031533599	1.2062937021	0.4363323152	1.3672780991	0.0000000000	0.0000000000	0.0000000000
2.6397914857	0.9031533599	1.2062937021	0.4363323152	1.3672780991	0.0000000000	0.0000000000	0.0000000000
2.6439617724	0.9031533599	1.2062937021	0.4363323152	1.3672780991	0.0000000000	0.0000000000	0.0000000000
2.6481320591	0.9031533599	1.2062937021	0.4363323152	1.3672780991	0.0000000000	0.0000000000	0.0000000000
2.6523023458	0.9031533599	1.2062937021	0.4363323152	1.3672780991	0.0000000000	0.0000000000	0.0000000000
2.6564726325	0.9031526446	1.2062937021	0.4363323152	1.3672794104	0.0000000000	0.0000000000	0.0000000000
2.6606429192	0.9031476974	1.2062938213	0.4363323152	1.3672881126	0.0000000000	0.0000000000	0.0000000000
2.6648132059	0.9031344652	1.2062944174	0.4363323152	1.3673112392	0.0000000000	0.0000000000	0.0000000000
2.6689834926	0.9031090140	1.2062953711	0.4363323152	1.3673559427	0.0000000000	0.0000000000	0.0000000000
2.6731537793	0.9030678272	1.2062968016	0.4363323152	1.3674281836	0.0000000000	0.0000000000	0.0000000000
2.6773240660	0.9030073881	1.2062989473	0.4363323152	1.3675342798	0.0000000000	0.0000000000	0.0000000000
2.6814943527	0.9029245973	1.2063019276	0.4363323152	1.3676795959	0.0000000000	0.0000000000	0.0000000000
2.6856646394	0.9028163552	1.2063059807	0.4363323152	1.3678696156	0.0000000000	0.0000000000	0.0000000000
2.6898349262	0.9026798010	1.2063108683	0.4363323152	1.3681091070	0.0000000000	0.0000000000	0.0000000000
2.6940052129	0.9025124907	1.2063171864	0.4363323152	1.3684027195	0.0000000000	0.0000000000	0.0000000000
2.6981754996	0.9023117423	1.2063245773	0.4363323152	1.3687549829	0.0000000000	0.0000000000	0.0000000000
2.7023457863	0.9020754099	1.2063335180	0.4363323152	1.3691694736	0.0000000000	0.0000000000	0.0000000000
2.7065160730	0.9018015265	1.2063438892	0.4363323152	1.3696498871	0.0000000000	0.0000000000	0.0000000000
2.7106863597	0.9014880061	1.2063560486	0.4363323152	1.3701997995	0.0000000000	0.0000000000	0.0000000000
2.7148566464	0.9011333585	1.2063698769	0.4363323152	1.3708218336	0.0000000000	0.0000000000	0.0000000000
2.7190269331	0.9007358551	1.2063856125	0.4363323152	1.3715187311	0.0000000000	0.0000000000	0.0000000000
2.7231972198	0.9002942443	1.2064034939	0.4363323152	1.3722929955	0.0000000000	0.0000000000	0.0000000000
2.7273675065	0.8998073339	1.2064234018	0.4363323152	1.3731465340	0.0000000000	0.0000000000	0.0000000000
2.7315377932	0.8992740512	1.2064458132	0.4363323152	1.3740811348	0.0000000000	0.0000000000	0.0000000000
2.7357080799	0.8986935019	1.2064707279	0.4363323152	1.3750983477	0.0000000000	0.0000000000	0.0000000000
2.7398783666	0.8980649710	1.2064981461	0.4363323152	1.3761993647	0.0000000000	0.0000000000	0.0000000000
2.7440486533	0.8973878622	1.2065286636	0.4363323152	1.3773851395	0.0000000000	0.0000000000	0.0000000000
2.7482189401	0.8966618180	1.2065619230	0.4363323152	1.3786563873	0.0000000000	0.0000000000	0.0000000000
2.7523892268	0.8958866596	1.2065985203	0.4363323152	1.3800133467	0.0000000000	0.0000000000	0.0000000000
2.7565595135	0.8950620890	1.2066384554	0.4363323152	1.3814563751	0.0000000000	0.0000000000	0.0000000000
